M48
; DRILL file {KiCad (5.1.6)-1} date 07/24/22 18:58:48
; FORMAT={-:-/ absolute / metric / decimal}
; #@! TF.CreationDate,2022-07-24T18:58:48+10:00
; #@! TF.GenerationSoftware,Kicad,Pcbnew,(5.1.6)-1
; #@! TF.FileFunction,Plated,1,2,PTH
FMAT,2
METRIC
T1C0.400
T2C0.800
T3C1.000
%
G90
G05
T1
X121.285Y-119.888
T2
X96.266Y-122.809
X103.886Y-122.809
X96.266Y-119.507
X103.886Y-119.507
X108.712Y-132.08
X108.712Y-139.7
X112.522Y-133.477
X112.522Y-136.017
X112.522Y-138.557
X120.142Y-133.477
X120.142Y-136.017
X120.142Y-138.557
X124.079Y-132.08
X124.079Y-139.7
X90.17Y-83.058
X90.17Y-90.678
T3
X108.585Y-119.888
X108.585Y-122.428
X93.98Y-107.315
X126.238Y-83.82
X126.238Y-86.36
X126.238Y-88.9
X126.238Y-91.44
X126.238Y-93.98
X126.238Y-96.52
X126.238Y-99.06
X126.238Y-101.6
X131.699Y-93.345
X99.314Y-132.207
X123.952Y-119.888
X123.952Y-122.428
X123.952Y-124.968
X123.952Y-127.508
X118.745Y-119.888
X118.745Y-122.428
X118.745Y-124.968
X104.14Y-133.477
X104.14Y-136.017
X93.98Y-83.82
X93.98Y-86.36
X93.98Y-88.9
X93.98Y-91.44
X93.98Y-93.98
X93.98Y-96.52
X93.98Y-99.06
X93.98Y-101.6
X109.093Y-114.935
X131.699Y-98.298
X131.572Y-88.9
X113.538Y-119.888
X113.538Y-122.428
X113.538Y-124.968
X98.679Y-83.82
X98.679Y-86.36
X98.679Y-88.9
X98.679Y-91.44
X98.679Y-93.98
X98.679Y-96.52
X98.679Y-99.06
X98.679Y-101.6
X121.539Y-83.82
X121.539Y-86.36
X121.539Y-88.9
X121.539Y-91.44
X121.539Y-93.98
X121.539Y-96.52
X121.539Y-99.06
X121.539Y-101.6
X113.03Y-114.935
X99.314Y-137.287
T0
M30
