%TF.GenerationSoftware,KiCad,Pcbnew,(5.1.6)-1*%
%TF.CreationDate,2022-07-24T18:58:52+10:00*%
%TF.ProjectId,v0.2a,76302e32-612e-46b6-9963-61645f706362,rev?*%
%TF.SameCoordinates,Original*%
%TF.FileFunction,Legend,Bot*%
%TF.FilePolarity,Positive*%
%FSLAX46Y46*%
G04 Gerber Fmt 4.6, Leading zero omitted, Abs format (unit mm)*
G04 Created by KiCad (PCBNEW (5.1.6)-1) date 2022-07-24 18:58:52*
%MOMM*%
%LPD*%
G01*
G04 APERTURE LIST*
%ADD10C,0.150000*%
%ADD11C,0.010000*%
G04 APERTURE END LIST*
D10*
X114859794Y-98687380D02*
X114734794Y-97687380D01*
X114490747Y-98401666D01*
X114068127Y-97687380D01*
X114193127Y-98687380D01*
X113288366Y-98687380D02*
X113222889Y-98163571D01*
X113258604Y-98068333D01*
X113347889Y-98020714D01*
X113538366Y-98020714D01*
X113639556Y-98068333D01*
X113282413Y-98639761D02*
X113383604Y-98687380D01*
X113621699Y-98687380D01*
X113710985Y-98639761D01*
X113746699Y-98544523D01*
X113734794Y-98449285D01*
X113675270Y-98354047D01*
X113574080Y-98306428D01*
X113335985Y-98306428D01*
X113234794Y-98258809D01*
X112871699Y-98020714D02*
X112490747Y-98020714D01*
X112687175Y-97687380D02*
X112794318Y-98544523D01*
X112758604Y-98639761D01*
X112669318Y-98687380D01*
X112574080Y-98687380D01*
X112300270Y-98020714D02*
X111919318Y-98020714D01*
X112115747Y-97687380D02*
X112222889Y-98544523D01*
X112187175Y-98639761D01*
X112097889Y-98687380D01*
X112002651Y-98687380D01*
X111669318Y-98687380D02*
X111544318Y-97687380D01*
X111240747Y-98687380D02*
X111175270Y-98163571D01*
X111210985Y-98068333D01*
X111300270Y-98020714D01*
X111443127Y-98020714D01*
X111544318Y-98068333D01*
X111597889Y-98115952D01*
X110377651Y-98639761D02*
X110478842Y-98687380D01*
X110669318Y-98687380D01*
X110758604Y-98639761D01*
X110794318Y-98544523D01*
X110746699Y-98163571D01*
X110687175Y-98068333D01*
X110585985Y-98020714D01*
X110395508Y-98020714D01*
X110306223Y-98068333D01*
X110270508Y-98163571D01*
X110282413Y-98258809D01*
X110770508Y-98354047D01*
X109919318Y-98020714D02*
X109812175Y-98687380D01*
X109562175Y-98211190D01*
X109431223Y-98687380D01*
X109157413Y-98020714D01*
X107621699Y-98687380D02*
X108097889Y-98687380D01*
X107972889Y-97687380D01*
X106859794Y-98687380D02*
X106794318Y-98163571D01*
X106830032Y-98068333D01*
X106919318Y-98020714D01*
X107109794Y-98020714D01*
X107210985Y-98068333D01*
X106853842Y-98639761D02*
X106955032Y-98687380D01*
X107193127Y-98687380D01*
X107282413Y-98639761D01*
X107318127Y-98544523D01*
X107306223Y-98449285D01*
X107246699Y-98354047D01*
X107145508Y-98306428D01*
X106907413Y-98306428D01*
X106806223Y-98258809D01*
X106395508Y-98020714D02*
X106288366Y-98687380D01*
X106038366Y-98211190D01*
X105907413Y-98687380D01*
X105633604Y-98020714D01*
X113359794Y-100337380D02*
X113276461Y-99670714D01*
X113288366Y-99765952D02*
X113234794Y-99718333D01*
X113133604Y-99670714D01*
X112990747Y-99670714D01*
X112901461Y-99718333D01*
X112865747Y-99813571D01*
X112931223Y-100337380D01*
X112865747Y-99813571D02*
X112806223Y-99718333D01*
X112705032Y-99670714D01*
X112562175Y-99670714D01*
X112472889Y-99718333D01*
X112437175Y-99813571D01*
X112502651Y-100337380D01*
X111883604Y-100337380D02*
X111972889Y-100289761D01*
X112008604Y-100194523D01*
X111901461Y-99337380D01*
X111419318Y-99670714D02*
X111526461Y-100527857D01*
X111585985Y-100623095D01*
X111687175Y-100670714D01*
X111734794Y-100670714D01*
X111377651Y-99337380D02*
X111431223Y-99385000D01*
X111389556Y-99432619D01*
X111335985Y-99385000D01*
X111377651Y-99337380D01*
X111389556Y-99432619D01*
X110883604Y-100337380D02*
X110972889Y-100289761D01*
X111008604Y-100194523D01*
X110901461Y-99337380D01*
X110490747Y-100242142D02*
X110449080Y-100289761D01*
X110502651Y-100337380D01*
X110544318Y-100289761D01*
X110490747Y-100242142D01*
X110502651Y-100337380D01*
X110085985Y-99670714D02*
X109705032Y-99670714D01*
X109901461Y-99337380D02*
X110008604Y-100194523D01*
X109972889Y-100289761D01*
X109883604Y-100337380D01*
X109788366Y-100337380D01*
X109068127Y-100289761D02*
X109169318Y-100337380D01*
X109359794Y-100337380D01*
X109449080Y-100289761D01*
X109484794Y-100194523D01*
X109437175Y-99813571D01*
X109377651Y-99718333D01*
X109276461Y-99670714D01*
X109085985Y-99670714D01*
X108996699Y-99718333D01*
X108960985Y-99813571D01*
X108972889Y-99908809D01*
X109460985Y-100004047D01*
X108163366Y-100289761D02*
X108264556Y-100337380D01*
X108455032Y-100337380D01*
X108544318Y-100289761D01*
X108585985Y-100242142D01*
X108621699Y-100146904D01*
X108585985Y-99861190D01*
X108526461Y-99765952D01*
X108472889Y-99718333D01*
X108371699Y-99670714D01*
X108181223Y-99670714D01*
X108091937Y-99718333D01*
X107740747Y-100337380D02*
X107615747Y-99337380D01*
X107312175Y-100337380D02*
X107246699Y-99813571D01*
X107282413Y-99718333D01*
X107371699Y-99670714D01*
X107514556Y-99670714D01*
X107615747Y-99718333D01*
X107669318Y-99765952D01*
X116723981Y-95250000D02*
G75*
G03*
X116723981Y-95250000I-6614981J0D01*
G01*
D11*
%TO.C,G\u002A\u002A\u002A*%
G36*
X108907560Y-91781448D02*
G01*
X108700325Y-91799008D01*
X108577095Y-91845167D01*
X108495208Y-91933749D01*
X108432896Y-92040630D01*
X108171935Y-92501376D01*
X107957908Y-92852013D01*
X107799680Y-93078856D01*
X107706115Y-93168224D01*
X107701865Y-93169010D01*
X107628076Y-93103226D01*
X107495857Y-92921308D01*
X107327837Y-92655797D01*
X107235453Y-92498333D01*
X106847843Y-91821000D01*
X105410000Y-91821000D01*
X105410000Y-96562333D01*
X106764667Y-96562333D01*
X106849333Y-94022333D01*
X107322401Y-94920309D01*
X107719717Y-94894654D01*
X107962205Y-94867675D01*
X108114017Y-94798696D01*
X108237979Y-94645844D01*
X108329850Y-94488000D01*
X108542667Y-94107000D01*
X108566399Y-95244416D01*
X108582675Y-95706888D01*
X108609107Y-96088447D01*
X108642978Y-96359874D01*
X108681568Y-96491950D01*
X108682600Y-96493250D01*
X108818515Y-96555344D01*
X109065063Y-96592876D01*
X109365272Y-96605426D01*
X109662170Y-96592569D01*
X109898786Y-96553885D01*
X110007400Y-96503067D01*
X110040097Y-96387459D01*
X110066949Y-96130393D01*
X110087954Y-95759643D01*
X110103114Y-95302983D01*
X110112428Y-94788186D01*
X110115895Y-94243027D01*
X110113517Y-93695280D01*
X110105293Y-93172719D01*
X110091223Y-92703118D01*
X110071307Y-92314251D01*
X110045545Y-92033891D01*
X110013937Y-91889814D01*
X110007400Y-91880266D01*
X109864966Y-91825150D01*
X109586688Y-91789869D01*
X109241462Y-91778666D01*
X108907560Y-91781448D01*
G37*
X108907560Y-91781448D02*
X108700325Y-91799008D01*
X108577095Y-91845167D01*
X108495208Y-91933749D01*
X108432896Y-92040630D01*
X108171935Y-92501376D01*
X107957908Y-92852013D01*
X107799680Y-93078856D01*
X107706115Y-93168224D01*
X107701865Y-93169010D01*
X107628076Y-93103226D01*
X107495857Y-92921308D01*
X107327837Y-92655797D01*
X107235453Y-92498333D01*
X106847843Y-91821000D01*
X105410000Y-91821000D01*
X105410000Y-96562333D01*
X106764667Y-96562333D01*
X106849333Y-94022333D01*
X107322401Y-94920309D01*
X107719717Y-94894654D01*
X107962205Y-94867675D01*
X108114017Y-94798696D01*
X108237979Y-94645844D01*
X108329850Y-94488000D01*
X108542667Y-94107000D01*
X108566399Y-95244416D01*
X108582675Y-95706888D01*
X108609107Y-96088447D01*
X108642978Y-96359874D01*
X108681568Y-96491950D01*
X108682600Y-96493250D01*
X108818515Y-96555344D01*
X109065063Y-96592876D01*
X109365272Y-96605426D01*
X109662170Y-96592569D01*
X109898786Y-96553885D01*
X110007400Y-96503067D01*
X110040097Y-96387459D01*
X110066949Y-96130393D01*
X110087954Y-95759643D01*
X110103114Y-95302983D01*
X110112428Y-94788186D01*
X110115895Y-94243027D01*
X110113517Y-93695280D01*
X110105293Y-93172719D01*
X110091223Y-92703118D01*
X110071307Y-92314251D01*
X110045545Y-92033891D01*
X110013937Y-91889814D01*
X110007400Y-91880266D01*
X109864966Y-91825150D01*
X109586688Y-91789869D01*
X109241462Y-91778666D01*
X108907560Y-91781448D01*
G36*
X111104639Y-92809180D02*
G01*
X110990549Y-92841321D01*
X110935395Y-92908395D01*
X110906738Y-93002468D01*
X110889839Y-93160171D01*
X110879162Y-93451623D01*
X110875260Y-93841334D01*
X110878684Y-94293814D01*
X110883109Y-94523651D01*
X110897083Y-95032767D01*
X110914396Y-95402310D01*
X110938994Y-95662037D01*
X110974826Y-95841708D01*
X111025838Y-95971081D01*
X111088131Y-96069299D01*
X111377296Y-96353468D01*
X111765635Y-96537905D01*
X112272603Y-96629972D01*
X112606667Y-96643891D01*
X112943302Y-96647643D01*
X113149502Y-96663838D01*
X113264163Y-96705602D01*
X113326180Y-96786059D01*
X113368667Y-96901000D01*
X113418448Y-97028802D01*
X113488894Y-97106088D01*
X113619689Y-97147763D01*
X113850517Y-97168733D01*
X114110782Y-97179751D01*
X114475680Y-97184346D01*
X114697415Y-97162632D01*
X114800548Y-97111581D01*
X114810832Y-97093485D01*
X114821764Y-96980871D01*
X114829812Y-96723514D01*
X114834752Y-96345983D01*
X114836360Y-95872849D01*
X114834412Y-95328679D01*
X114830716Y-94909734D01*
X114808000Y-92837000D01*
X114109500Y-92812409D01*
X113787607Y-92803886D01*
X113540678Y-92802673D01*
X113409115Y-92808770D01*
X113397890Y-92812409D01*
X113390143Y-92901050D01*
X113377514Y-93128908D01*
X113361475Y-93465989D01*
X113343497Y-93882295D01*
X113334390Y-94107000D01*
X113284000Y-95377000D01*
X112884583Y-95402693D01*
X112711532Y-95411129D01*
X112585265Y-95395645D01*
X112497834Y-95333473D01*
X112441296Y-95201845D01*
X112407705Y-94977993D01*
X112389116Y-94639149D01*
X112377584Y-94162545D01*
X112373344Y-93937667D01*
X112352667Y-92837000D01*
X111656629Y-92812449D01*
X111314415Y-92802660D01*
X111104639Y-92809180D01*
G37*
X111104639Y-92809180D02*
X110990549Y-92841321D01*
X110935395Y-92908395D01*
X110906738Y-93002468D01*
X110889839Y-93160171D01*
X110879162Y-93451623D01*
X110875260Y-93841334D01*
X110878684Y-94293814D01*
X110883109Y-94523651D01*
X110897083Y-95032767D01*
X110914396Y-95402310D01*
X110938994Y-95662037D01*
X110974826Y-95841708D01*
X111025838Y-95971081D01*
X111088131Y-96069299D01*
X111377296Y-96353468D01*
X111765635Y-96537905D01*
X112272603Y-96629972D01*
X112606667Y-96643891D01*
X112943302Y-96647643D01*
X113149502Y-96663838D01*
X113264163Y-96705602D01*
X113326180Y-96786059D01*
X113368667Y-96901000D01*
X113418448Y-97028802D01*
X113488894Y-97106088D01*
X113619689Y-97147763D01*
X113850517Y-97168733D01*
X114110782Y-97179751D01*
X114475680Y-97184346D01*
X114697415Y-97162632D01*
X114800548Y-97111581D01*
X114810832Y-97093485D01*
X114821764Y-96980871D01*
X114829812Y-96723514D01*
X114834752Y-96345983D01*
X114836360Y-95872849D01*
X114834412Y-95328679D01*
X114830716Y-94909734D01*
X114808000Y-92837000D01*
X114109500Y-92812409D01*
X113787607Y-92803886D01*
X113540678Y-92802673D01*
X113409115Y-92808770D01*
X113397890Y-92812409D01*
X113390143Y-92901050D01*
X113377514Y-93128908D01*
X113361475Y-93465989D01*
X113343497Y-93882295D01*
X113334390Y-94107000D01*
X113284000Y-95377000D01*
X112884583Y-95402693D01*
X112711532Y-95411129D01*
X112585265Y-95395645D01*
X112497834Y-95333473D01*
X112441296Y-95201845D01*
X112407705Y-94977993D01*
X112389116Y-94639149D01*
X112377584Y-94162545D01*
X112373344Y-93937667D01*
X112352667Y-92837000D01*
X111656629Y-92812449D01*
X111314415Y-92802660D01*
X111104639Y-92809180D01*
%TD*%
M02*
