%TF.GenerationSoftware,KiCad,Pcbnew,(5.1.6)-1*%
%TF.CreationDate,2022-07-24T18:58:52+10:00*%
%TF.ProjectId,v0.2a,76302e32-612e-46b6-9963-61645f706362,rev?*%
%TF.SameCoordinates,Original*%
%TF.FileFunction,Copper,L2,Bot*%
%TF.FilePolarity,Positive*%
%FSLAX46Y46*%
G04 Gerber Fmt 4.6, Leading zero omitted, Abs format (unit mm)*
G04 Created by KiCad (PCBNEW (5.1.6)-1) date 2022-07-24 18:58:52*
%MOMM*%
%LPD*%
G01*
G04 APERTURE LIST*
%TA.AperFunction,ComponentPad*%
%ADD10R,1.600000X1.600000*%
%TD*%
%TA.AperFunction,ComponentPad*%
%ADD11O,1.600000X1.600000*%
%TD*%
%TA.AperFunction,ComponentPad*%
%ADD12O,1.700000X1.700000*%
%TD*%
%TA.AperFunction,ComponentPad*%
%ADD13R,1.700000X1.700000*%
%TD*%
%TA.AperFunction,ComponentPad*%
%ADD14C,1.600000*%
%TD*%
%TA.AperFunction,ComponentPad*%
%ADD15C,2.000000*%
%TD*%
%TA.AperFunction,ComponentPad*%
%ADD16O,2.000000X1.600000*%
%TD*%
%TA.AperFunction,ComponentPad*%
%ADD17R,2.000000X2.000000*%
%TD*%
%TA.AperFunction,ViaPad*%
%ADD18C,0.800000*%
%TD*%
%TA.AperFunction,Conductor*%
%ADD19C,0.508000*%
%TD*%
%TA.AperFunction,Conductor*%
%ADD20C,0.250000*%
%TD*%
G04 APERTURE END LIST*
D10*
%TO.P,U1,1*%
%TO.N,+5V*%
X112522000Y-133477000D03*
D11*
%TO.P,U1,4*%
%TO.N,/D1*%
X120142000Y-138557000D03*
%TO.P,U1,2*%
%TO.N,Net-(R2-Pad1)*%
X112522000Y-136017000D03*
%TO.P,U1,5*%
%TO.N,+3V3*%
X120142000Y-136017000D03*
%TO.P,U1,3*%
%TO.N,Net-(U1-Pad3)*%
X112522000Y-138557000D03*
%TO.P,U1,6*%
%TO.N,Net-(U1-Pad6)*%
X120142000Y-133477000D03*
%TD*%
D12*
%TO.P,J1,2*%
%TO.N,/Batt-*%
X108585000Y-122428000D03*
D13*
%TO.P,J1,1*%
%TO.N,/Batt+*%
X108585000Y-119888000D03*
%TD*%
%TO.P,J2,1*%
%TO.N,/Batt+*%
X113538000Y-124968000D03*
D12*
%TO.P,J2,2*%
%TO.N,/Batt-*%
X113538000Y-122428000D03*
%TO.P,J2,3*%
%TO.N,+5VA*%
X113538000Y-119888000D03*
%TD*%
D13*
%TO.P,J3,1*%
%TO.N,+5V*%
X104140000Y-133477000D03*
D12*
%TO.P,J3,2*%
%TO.N,/GND_wall*%
X104140000Y-136017000D03*
%TD*%
%TO.P,J4,3*%
%TO.N,/Batt-*%
X118745000Y-119888000D03*
%TO.P,J4,2*%
%TO.N,/UART0_RX*%
X118745000Y-122428000D03*
D13*
%TO.P,J4,1*%
%TO.N,/D8*%
X118745000Y-124968000D03*
%TD*%
%TO.P,J5,1*%
%TO.N,/D4*%
X123952000Y-127508000D03*
D12*
%TO.P,J5,2*%
%TO.N,/D7*%
X123952000Y-124968000D03*
%TO.P,J5,3*%
%TO.N,+5VA*%
X123952000Y-122428000D03*
%TO.P,J5,4*%
%TO.N,/Batt-*%
X123952000Y-119888000D03*
%TD*%
D13*
%TO.P,J6,1*%
%TO.N,/Tx*%
X126238000Y-83820000D03*
D12*
%TO.P,J6,2*%
%TO.N,/Rx*%
X126238000Y-86360000D03*
%TO.P,J6,3*%
%TO.N,/D1*%
X126238000Y-88900000D03*
%TO.P,J6,4*%
%TO.N,/D2*%
X126238000Y-91440000D03*
%TO.P,J6,5*%
%TO.N,/D3*%
X126238000Y-93980000D03*
%TO.P,J6,6*%
%TO.N,/D4*%
X126238000Y-96520000D03*
%TO.P,J6,7*%
%TO.N,/Batt-*%
X126238000Y-99060000D03*
%TO.P,J6,8*%
%TO.N,+5VA*%
X126238000Y-101600000D03*
%TD*%
%TO.P,J7,8*%
%TO.N,+3V3*%
X93980000Y-101600000D03*
%TO.P,J7,7*%
%TO.N,/D8*%
X93980000Y-99060000D03*
%TO.P,J7,6*%
%TO.N,/D7*%
X93980000Y-96520000D03*
%TO.P,J7,5*%
%TO.N,/D6*%
X93980000Y-93980000D03*
%TO.P,J7,4*%
%TO.N,/D5*%
X93980000Y-91440000D03*
%TO.P,J7,3*%
%TO.N,/D0*%
X93980000Y-88900000D03*
%TO.P,J7,2*%
%TO.N,/A0*%
X93980000Y-86360000D03*
D13*
%TO.P,J7,1*%
%TO.N,/RST*%
X93980000Y-83820000D03*
%TD*%
D14*
%TO.P,R1,1*%
%TO.N,/D1*%
X124079000Y-139700000D03*
D11*
%TO.P,R1,2*%
%TO.N,/Batt-*%
X124079000Y-132080000D03*
%TD*%
D14*
%TO.P,R2,1*%
%TO.N,Net-(R2-Pad1)*%
X108712000Y-132080000D03*
D11*
%TO.P,R2,2*%
%TO.N,/GND_wall*%
X108712000Y-139700000D03*
%TD*%
%TO.P,R3,2*%
%TO.N,/A0*%
X96266000Y-119507000D03*
D14*
%TO.P,R3,1*%
%TO.N,/Batt+*%
X103886000Y-119507000D03*
%TD*%
%TO.P,R4,1*%
%TO.N,/A0*%
X96266000Y-122809000D03*
D11*
%TO.P,R4,2*%
%TO.N,/Batt-*%
X103886000Y-122809000D03*
%TD*%
%TO.P,R5,2*%
%TO.N,/RST*%
X90170000Y-83058000D03*
D14*
%TO.P,R5,1*%
%TO.N,/D0*%
X90170000Y-90678000D03*
%TD*%
D15*
%TO.P,TP1,1*%
%TO.N,+5V*%
X99314000Y-132207000D03*
%TD*%
%TO.P,TP2,1*%
%TO.N,+5VA*%
X131699000Y-98298000D03*
%TD*%
%TO.P,TP3,1*%
%TO.N,+3V3*%
X93980000Y-107315000D03*
%TD*%
%TO.P,TP4,1*%
%TO.N,/Batt+*%
X113030000Y-114935000D03*
%TD*%
%TO.P,TP5,1*%
%TO.N,/Batt-*%
X131699000Y-93345000D03*
%TD*%
%TO.P,TP6,1*%
%TO.N,/GND_wall*%
X99314000Y-137287000D03*
%TD*%
%TO.P,TP8,1*%
%TO.N,/D1*%
X131572000Y-88900000D03*
%TD*%
D16*
%TO.P,U2,2*%
%TO.N,/A0*%
X98679000Y-86360000D03*
D17*
%TO.P,U2,1*%
%TO.N,/RST*%
X98679000Y-83820000D03*
D16*
%TO.P,U2,3*%
%TO.N,/D0*%
X98679000Y-88900000D03*
%TO.P,U2,4*%
%TO.N,/D5*%
X98679000Y-91440000D03*
%TO.P,U2,5*%
%TO.N,/D6*%
X98679000Y-93980000D03*
%TO.P,U2,6*%
%TO.N,/D7*%
X98679000Y-96520000D03*
%TO.P,U2,7*%
%TO.N,/D8*%
X98679000Y-99060000D03*
%TO.P,U2,8*%
%TO.N,+3V3*%
X98679000Y-101600000D03*
%TO.P,U2,9*%
%TO.N,+5VA*%
X121539000Y-101600000D03*
%TO.P,U2,10*%
%TO.N,/Batt-*%
X121539000Y-99060000D03*
%TO.P,U2,11*%
%TO.N,/D4*%
X121539000Y-96520000D03*
%TO.P,U2,12*%
%TO.N,/D3*%
X121539000Y-93980000D03*
%TO.P,U2,13*%
%TO.N,/D2*%
X121539000Y-91440000D03*
%TO.P,U2,14*%
%TO.N,/D1*%
X121539000Y-88900000D03*
%TO.P,U2,15*%
%TO.N,/Rx*%
X121539000Y-86360000D03*
%TO.P,U2,16*%
%TO.N,/Tx*%
X121539000Y-83820000D03*
%TD*%
D15*
%TO.P,TP7,1*%
%TO.N,/A0*%
X109093000Y-114935000D03*
%TD*%
D18*
%TO.N,/Batt-*%
X121285000Y-119888000D03*
%TD*%
D19*
%TO.N,+5VA*%
X126365000Y-122428000D02*
X123952000Y-122428000D01*
X127254000Y-121539000D02*
X126365000Y-122428000D01*
X113538000Y-118237000D02*
X114300000Y-117475000D01*
X127254000Y-118745000D02*
X127254000Y-121539000D01*
X114300000Y-117475000D02*
X125984000Y-117475000D01*
X113538000Y-119888000D02*
X113538000Y-118237000D01*
X125984000Y-117475000D02*
X127254000Y-118745000D01*
D20*
%TO.N,/D8*%
X98679000Y-99060000D02*
X93980000Y-99060000D01*
%TO.N,/D4*%
X128270000Y-96520000D02*
X126238000Y-96520000D01*
X128778000Y-97028000D02*
X128270000Y-96520000D01*
X128778000Y-124333000D02*
X128778000Y-97028000D01*
X123952000Y-127508000D02*
X125603000Y-127508000D01*
X125603000Y-127508000D02*
X128778000Y-124333000D01*
D19*
%TO.N,+3V3*%
X93980000Y-101600000D02*
X98679000Y-101600000D01*
X97663000Y-128016000D02*
X93980000Y-124333000D01*
X93980000Y-107315000D02*
X93980000Y-124333000D01*
X97663000Y-128016000D02*
X115443000Y-128016000D01*
X115443000Y-128016000D02*
X117983000Y-130556000D01*
X117983000Y-130556000D02*
X117983000Y-135128000D01*
X118872000Y-136017000D02*
X120142000Y-136017000D01*
X117983000Y-135128000D02*
X118872000Y-136017000D01*
D20*
%TO.N,/A0*%
X96901000Y-121158000D02*
X96901000Y-122809000D01*
X96901000Y-119507000D02*
X96901000Y-121158000D01*
X101473000Y-86360000D02*
X98679000Y-86360000D01*
X102362000Y-87249000D02*
X101473000Y-86360000D01*
X102362000Y-118745000D02*
X102362000Y-87249000D01*
X96901000Y-121158000D02*
X99949000Y-121158000D01*
X99949000Y-121158000D02*
X102362000Y-118745000D01*
X102362000Y-118745000D02*
X104140000Y-116967000D01*
X104140000Y-116967000D02*
X108839000Y-116967000D01*
X108839000Y-116967000D02*
X109093000Y-116713000D01*
X109093000Y-116713000D02*
X109093000Y-114935000D01*
D19*
%TO.N,Net-(R2-Pad1)*%
X112649000Y-136017000D02*
X109855000Y-136017000D01*
X108712000Y-134874000D02*
X108712000Y-132080000D01*
X109855000Y-136017000D02*
X108712000Y-134874000D01*
%TO.N,/Batt-*%
X124079000Y-132080000D02*
X122555000Y-132080000D01*
X121285000Y-130810000D02*
X121285000Y-119888000D01*
X122555000Y-132080000D02*
X121285000Y-130810000D01*
%TO.N,/Batt+*%
X113538000Y-124968000D02*
X112014000Y-124968000D01*
X112014000Y-124968000D02*
X111125000Y-124079000D01*
X111125000Y-124079000D02*
X111125000Y-120396000D01*
X110617000Y-119888000D02*
X108585000Y-119888000D01*
X111125000Y-120396000D02*
X110617000Y-119888000D01*
D20*
X108204000Y-119507000D02*
X108585000Y-119888000D01*
X104521000Y-119507000D02*
X108204000Y-119507000D01*
D19*
X111125000Y-116840000D02*
X113030000Y-114935000D01*
X111125000Y-120396000D02*
X111125000Y-116840000D01*
%TD*%
M02*
